<svg width="220" height="238" viewBox="0 0 220 238" fill="none" xmlns="http://www.w3.org/2000/svg">
<ellipse cx="179.436" cy="72.9357" rx="2.0625" ry="2.03657" fill="#39BEE8"/>
<ellipse cx="79.748" cy="206.67" rx="3.4375" ry="3.39429" fill="#FF9F67"/>
<ellipse cx="45.373" cy="117.74" rx="3.4375" ry="3.39429" fill="#B3DB64"/>
<path fill-rule="evenodd" clip-rule="evenodd" d="M61.5538 102.367C61.5163 102.37 61.4786 102.373 61.4407 102.376C59.2487 102.553 57.0849 102.912 54.9491 103.452C54.8166 103.485 54.6827 103.492 54.5473 103.473C54.4119 103.454 54.2854 103.41 54.1678 103.341C54.0521 103.274 53.9535 103.187 53.8722 103.081C53.7908 102.976 53.7327 102.859 53.6976 102.73C53.6971 102.728 53.6965 102.726 53.6959 102.724C53.6954 102.722 53.6948 102.72 53.6943 102.718C53.6236 102.445 53.6609 102.188 53.806 101.946C53.9511 101.704 54.1616 101.549 54.4375 101.479C56.7248 100.901 59.0429 100.52 61.3916 100.337C61.528 100.326 61.6612 100.342 61.7912 100.384C61.9213 100.425 62.0383 100.49 62.1423 100.578C62.2463 100.665 62.3294 100.769 62.3915 100.89C62.4536 101.01 62.49 101.137 62.5008 101.272C62.5232 101.552 62.4419 101.799 62.257 102.013C62.0721 102.227 61.8377 102.345 61.5538 102.367ZM41.3486 108.572C41.3499 108.574 41.3511 108.575 41.3524 108.577C41.3536 108.579 41.3549 108.581 41.3561 108.583C41.517 108.812 41.7361 108.952 42.0134 109.003C42.2908 109.054 42.5464 109.002 42.7803 108.846C44.6351 107.61 46.5853 106.539 48.6309 105.633C48.8883 105.518 49.0681 105.331 49.1701 105.072C49.2721 104.812 49.267 104.554 49.1548 104.299C49.1539 104.297 49.153 104.295 49.1521 104.293C49.1513 104.291 49.1504 104.289 49.1495 104.287C49.0328 104.03 48.8415 103.852 48.5753 103.752C48.3091 103.652 48.0462 103.659 47.7864 103.775C45.6328 104.729 43.5795 105.857 41.6266 107.158C41.3905 107.315 41.2454 107.532 41.1911 107.808C41.1368 108.084 41.1893 108.339 41.3486 108.572ZM31.7424 118.194C31.7442 118.195 31.746 118.196 31.7478 118.197C31.7496 118.199 31.7514 118.2 31.7533 118.201C31.8628 118.278 31.983 118.332 32.1139 118.362C32.2447 118.393 32.3766 118.398 32.5094 118.378C32.6445 118.357 32.7705 118.311 32.8873 118.241C33.0041 118.171 33.1028 118.081 33.1835 117.972C34.5037 116.188 35.9695 114.53 37.5807 112.998C37.7839 112.804 37.8892 112.569 37.8963 112.29C37.9035 112.012 37.8106 111.771 37.6176 111.568C37.616 111.566 37.6145 111.564 37.613 111.563C37.6114 111.561 37.6099 111.56 37.6083 111.558C37.4108 111.355 37.1697 111.251 36.885 111.246C36.6002 111.241 36.3553 111.336 36.1502 111.531C34.4529 113.144 32.9088 114.891 31.5181 116.771C31.3501 116.998 31.288 117.25 31.3318 117.528C31.3756 117.806 31.5125 118.028 31.7424 118.194ZM25.9778 130.484C25.98 130.484 25.9821 130.485 25.9842 130.486C25.9864 130.486 25.9885 130.487 25.9906 130.487C26.12 130.523 26.2515 130.534 26.3851 130.519C26.5187 130.505 26.6446 130.466 26.7628 130.402C26.883 130.338 26.9861 130.253 27.0722 130.148C27.1583 130.044 27.2208 129.926 27.2597 129.797C27.8091 127.967 28.4955 126.181 29.3187 124.438C29.4469 124.166 29.5782 123.896 29.7125 123.628C29.7731 123.507 29.8079 123.379 29.817 123.244C29.8261 123.11 29.8088 122.978 29.765 122.85C29.7219 122.725 29.6564 122.612 29.5685 122.511C29.4806 122.411 29.3767 122.33 29.2569 122.27C29.255 122.269 29.253 122.268 29.2511 122.267C29.2491 122.266 29.2472 122.265 29.2452 122.264C28.9899 122.139 28.7274 122.122 28.4577 122.212C28.1879 122.302 27.9899 122.473 27.8637 122.725C27.7224 123.007 27.5843 123.291 27.4494 123.577C26.5831 125.411 25.8607 127.292 25.2823 129.218C25.2013 129.488 25.2288 129.746 25.3646 129.993C25.5004 130.24 25.7048 130.404 25.9778 130.484ZM24.7608 143.953C24.763 143.953 24.7652 143.953 24.7674 143.953C24.7696 143.953 24.7719 143.953 24.7741 143.953C25.0555 143.933 25.2893 143.818 25.4755 143.609C25.6617 143.399 25.7466 143.156 25.7301 142.877C25.5995 140.669 25.6623 138.469 25.9184 136.275C25.9507 135.999 25.8799 135.751 25.706 135.531C25.5321 135.312 25.3053 135.184 25.0254 135.149C25.0232 135.149 25.021 135.148 25.0187 135.148C25.0165 135.148 25.0143 135.147 25.0121 135.147C24.8762 135.132 24.7426 135.143 24.611 135.18C24.4795 135.217 24.3602 135.277 24.2531 135.361C24.1459 135.445 24.0591 135.546 23.9927 135.664C23.9262 135.782 23.8851 135.908 23.8695 136.042C23.5997 138.352 23.5336 140.67 23.6711 142.996C23.6791 143.131 23.7129 143.259 23.7725 143.381C23.8321 143.502 23.913 143.608 24.0152 143.698C24.1174 143.787 24.233 143.854 24.3622 143.899C24.4914 143.943 24.6242 143.961 24.7608 143.953ZM26.6932 149.415C26.6288 149.143 26.4771 148.934 26.2383 148.785C25.9994 148.637 25.7422 148.593 25.4667 148.653C25.4645 148.653 25.4624 148.654 25.4602 148.654C25.4581 148.655 25.4559 148.655 25.4538 148.656C25.3206 148.686 25.1985 148.741 25.0875 148.82C24.9764 148.899 24.8848 148.996 24.8127 149.11C24.7407 149.225 24.6936 149.349 24.6715 149.482C24.6494 149.616 24.6539 149.748 24.6851 149.879C25.2231 152.145 25.9529 154.35 26.8745 156.493C26.9858 156.752 27.1735 156.934 27.4376 157.039C27.7016 157.145 27.9647 157.142 28.2268 157.032C28.2288 157.031 28.2309 157.031 28.2329 157.03C28.2349 157.029 28.2369 157.028 28.2389 157.027C28.362 156.974 28.4704 156.899 28.564 156.804C28.6576 156.709 28.7296 156.6 28.78 156.476C28.8312 156.351 28.8562 156.221 28.855 156.086C28.8538 155.951 28.8264 155.821 28.773 155.697C27.8975 153.661 27.2042 151.567 26.6932 149.415ZM36.0611 168.126C36.06 168.127 36.0589 168.128 36.0578 168.129C36.0567 168.13 36.0556 168.131 36.0545 168.132C35.9537 168.223 35.8391 168.292 35.7106 168.338C35.5821 168.385 35.4495 168.405 35.3129 168.399C35.1763 168.393 35.046 168.362 34.922 168.305C34.7981 168.248 34.6899 168.169 34.5974 168.07C33.3943 166.774 32.1947 165.368 30.9986 163.851C30.9929 163.844 30.9873 163.837 30.9819 163.83C30.9764 163.822 30.971 163.815 30.9657 163.807C30.6949 163.423 30.431 163.034 30.1738 162.641C30.0194 162.404 29.9722 162.149 30.0322 161.874C30.0922 161.599 30.2418 161.385 30.4811 161.233C30.4829 161.232 30.4848 161.231 30.4867 161.229C30.4885 161.228 30.4904 161.227 30.4923 161.226C30.6062 161.155 30.7293 161.109 30.8618 161.086C30.9942 161.063 31.1261 161.065 31.2576 161.093C31.3912 161.122 31.5143 161.174 31.6268 161.251C31.7393 161.328 31.8326 161.423 31.9068 161.536C32.146 161.902 32.3914 162.264 32.643 162.622C33.7993 164.087 34.9576 165.444 36.1176 166.693C36.3089 166.899 36.399 167.142 36.388 167.421C36.377 167.7 36.268 167.935 36.0611 168.126L36.0611 168.126ZM41.0047 171.308C40.7867 171.131 40.5371 171.055 40.256 171.08C39.9749 171.106 39.7434 171.225 39.5614 171.438C39.56 171.44 39.5587 171.441 39.5573 171.443C39.5559 171.444 39.5545 171.446 39.5532 171.448C39.4663 171.552 39.403 171.669 39.3632 171.798C39.3233 171.927 39.31 172.059 39.3233 172.193C39.3366 172.328 39.3754 172.454 39.4397 172.573C39.5041 172.693 39.589 172.795 39.6947 172.881C41.6356 174.457 43.5871 175.752 45.5493 176.766C45.6704 176.828 45.7991 176.866 45.9353 176.878C46.0715 176.89 46.2049 176.876 46.3354 176.835C46.4659 176.795 46.5837 176.732 46.6886 176.645C46.7935 176.559 46.8777 176.455 46.9411 176.336C46.9426 176.333 46.9441 176.33 46.9456 176.327C46.9471 176.324 46.9486 176.321 46.95 176.318C47.0755 176.07 47.0951 175.814 47.0086 175.55C46.9222 175.286 46.7545 175.09 46.5056 174.961C44.6694 174.013 42.8358 172.795 41.0047 171.308ZM52.6635 177.132C52.3887 177.081 52.1346 177.131 51.9011 177.283C51.6677 177.435 51.5213 177.647 51.4619 177.917C51.461 177.921 51.4602 177.925 51.4593 177.929C51.4585 177.933 51.4576 177.937 51.4568 177.941C51.4033 178.217 51.4565 178.472 51.6164 178.704C51.7764 178.937 51.9962 179.08 52.2759 179.133C54.5774 179.568 56.888 179.624 59.2077 179.302C59.3431 179.283 59.4697 179.24 59.5875 179.171C59.7054 179.103 59.8054 179.015 59.8877 178.907C59.97 178.799 60.0283 178.68 60.0625 178.549C60.0968 178.418 60.1044 178.286 60.0854 178.152C60.0504 177.907 59.9395 177.701 59.7526 177.536C59.5658 177.37 59.3469 177.284 59.096 177.276C59.0667 177.275 59.0374 177.276 59.0081 177.277C58.9788 177.279 58.9497 177.281 58.9206 177.285C56.8268 177.576 54.7411 177.525 52.6635 177.132Z" fill="#0D0938"/>
<rect width="12.2965" height="2.73298" rx="1.36649" transform="matrix(0.987891 -0.189613 -0.191998 -0.975325 187.506 160.294)" fill="#0D0938"/>
<rect width="12.3138" height="2.72913" rx="1.36456" transform="matrix(0.992595 0.155235 0.157631 -0.982731 187.24 167.658)" fill="#0D0938"/>
<rect width="12.2744" height="2.73788" rx="1.36894" transform="matrix(0.772323 -0.639909 0.645632 0.759762 182.969 151.73)" fill="#0D0938"/>
<path fill-rule="evenodd" clip-rule="evenodd" d="M96.8486 70.9657C89.1334 73.9523 82.7726 79.1632 77.7661 86.5986C71.8409 95.3985 69.5673 104.711 70.9453 114.537C71.4703 118.281 72.2055 123.51 73.1511 130.224C76.4133 153.39 78.1474 166.386 78.3534 169.213C78.5877 172.43 77.8099 176.2 76.0202 180.525C75.8419 180.955 75.6625 181.374 75.4818 181.78L171.13 156.473C170.978 156.37 170.826 156.264 170.672 156.155C167.039 153.595 164.434 150.712 162.858 147.504C161.471 144.682 156.314 132.394 147.386 110.641C144.801 104.342 142.785 99.4325 141.338 95.913C137.559 86.7225 130.876 79.7792 121.289 75.0832C113.189 71.1155 105.043 69.743 96.8486 70.9657ZM173.817 155.763C175.375 156.696 176.47 157.169 176.47 157.169L71.5461 184.93C71.5461 184.93 72.1226 183.986 72.8754 182.47C74.3959 179.408 76.6359 174.014 76.2968 169.359C75.9241 164.242 73.1884 145.374 68.9029 114.816C66.4305 97.1871 76.4315 79.2142 92.0885 70.9485C93.4569 70.2261 94.8684 69.5778 96.3186 69.0104C97.8618 68.7858 99.4125 68.6503 100.963 68.6004C118.708 68.0287 136.469 78.6562 143.249 95.1466C155.031 123.803 162.2 141.499 164.714 146.615C166.893 151.048 171.073 154.119 173.817 155.763ZM91.8117 69.9297L100.687 67.5816C99.1962 67.976 97.7756 68.5905 96.4271 69.4114C94.8435 69.3663 93.3021 69.5354 91.8117 69.9297Z" fill="#0080FF"/>
<path fill-rule="evenodd" clip-rule="evenodd" d="M171.291 156.43L75.6629 181.732C73.6459 182.265 72.1154 183.425 71.0713 185.211C70.0273 186.996 69.7755 188.885 70.3159 190.877L70.3163 190.878C70.8567 192.87 72.0311 194.381 73.8395 195.412C75.6479 196.443 77.5606 196.691 79.5776 196.158L175.206 170.856C177.223 170.323 178.753 169.163 179.797 167.377C180.841 165.592 181.093 163.703 180.553 161.712L180.552 161.71C180.012 159.719 178.837 158.207 177.029 157.176C175.221 156.145 173.308 155.897 171.291 156.43ZM72.8575 186.229C73.6168 184.931 74.7299 184.087 76.1967 183.699L171.825 158.398C173.292 158.01 174.683 158.191 175.998 158.94C177.313 159.69 178.167 160.789 178.56 162.238L178.56 162.239C178.953 163.687 178.77 165.061 178.011 166.359C177.252 167.658 176.139 168.501 174.672 168.89L79.0437 194.191C77.5769 194.579 76.1859 194.398 74.8707 193.648C73.5556 192.899 72.7015 191.8 72.3085 190.351L72.3081 190.35C71.9151 188.901 72.0982 187.528 72.8575 186.229Z" fill="#0080FF"/>
<path fill-rule="evenodd" clip-rule="evenodd" d="M118.628 187.934C118.903 187.861 119.164 187.895 119.411 188.036C119.657 188.177 119.817 188.383 119.891 188.654C120.53 191.008 121.918 192.794 124.055 194.013C126.193 195.231 128.453 195.525 130.837 194.895C133.221 194.264 135.03 192.893 136.264 190.783C137.498 188.672 137.796 186.44 137.157 184.086C137.083 183.814 137.118 183.557 137.26 183.313C137.403 183.07 137.611 182.912 137.886 182.839C138.161 182.766 138.422 182.8 138.669 182.941C138.915 183.081 139.076 183.287 139.149 183.559C139.936 186.456 139.569 189.203 138.05 191.801C136.532 194.399 134.305 196.085 131.371 196.862C128.437 197.638 125.655 197.276 123.024 195.777C120.394 194.277 118.685 192.079 117.899 189.181C117.825 188.91 117.86 188.652 118.002 188.409C118.144 188.165 118.353 188.007 118.628 187.934Z" fill="#0080FF"/>
<g filter="url(#filter0_d_401_697)">
<ellipse cx="133.373" cy="74.2938" rx="31.625" ry="31.2274" fill="white"/>
</g>
<ellipse cx="137.498" cy="70.2207" rx="24.0625" ry="23.76" fill="white"/>
<path fill-rule="evenodd" clip-rule="evenodd" d="M156.748 73.615C156.748 86.7373 145.975 97.375 132.686 97.375C119.396 97.375 108.623 86.7373 108.623 73.615C108.623 60.4927 119.396 49.855 132.686 49.855C145.975 49.855 156.748 60.4927 156.748 73.615ZM148.242 88.9761C143.946 93.2178 138.761 95.3387 132.686 95.3387C126.611 95.3387 121.425 93.2178 117.129 88.9761C112.834 84.7343 110.686 79.614 110.686 73.6153C110.686 67.6165 112.834 62.4963 117.129 58.2545C121.425 54.0127 126.611 51.8919 132.686 51.8919C138.761 51.8919 143.946 54.0127 148.242 58.2545C152.538 62.4963 154.686 67.6165 154.686 73.6153C154.686 79.614 152.538 84.7343 148.242 88.9761Z" fill="#0080FF"/>
<path fill-rule="evenodd" clip-rule="evenodd" d="M138.186 74.3102C138.186 77.06 137.733 79.1024 136.829 80.4375C135.924 81.7727 134.541 82.4403 132.68 82.4403C130.878 82.4403 129.512 81.751 128.582 80.3726C127.651 78.9941 127.186 76.9733 127.186 74.3102C127.186 71.5172 127.638 69.4585 128.543 68.1342C129.447 66.8099 130.827 66.1477 132.68 66.1477C134.49 66.1477 135.86 66.8405 136.79 68.2262C137.721 69.6119 138.186 71.6399 138.186 74.3102ZM129.822 74.3104C129.822 76.4684 130.05 78.0092 130.504 78.933C130.958 79.8568 131.683 80.3187 132.68 80.3187C133.677 80.3187 134.407 79.8496 134.868 78.9113C135.33 77.9731 135.561 76.4395 135.561 74.3104C135.561 72.1886 135.33 70.6532 134.868 69.7041C134.407 68.7551 133.677 68.2806 132.68 68.2806C131.683 68.2806 130.958 68.7461 130.504 69.6771C130.05 70.6081 129.822 72.1525 129.822 74.3104Z" fill="#0D0938"/>
<defs>
<filter id="filter0_d_401_697" x="97.7482" y="43.0664" width="71.25" height="70.4548" filterUnits="userSpaceOnUse" color-interpolation-filters="sRGB">
<feFlood flood-opacity="0" result="BackgroundImageFix"/>
<feColorMatrix in="SourceAlpha" type="matrix" values="0 0 0 0 0 0 0 0 0 0 0 0 0 0 0 0 0 0 127 0" result="hardAlpha"/>
<feOffset dy="4"/>
<feGaussianBlur stdDeviation="2"/>
<feComposite in2="hardAlpha" operator="out"/>
<feColorMatrix type="matrix" values="0 0 0 0 0 0 0 0 0 0 0 0 0 0 0 0 0 0 0.25 0"/>
<feBlend mode="normal" in2="BackgroundImageFix" result="effect1_dropShadow_401_697"/>
<feBlend mode="normal" in="SourceGraphic" in2="effect1_dropShadow_401_697" result="shape"/>
</filter>
</defs>
</svg>
