<svg width="270" height="424" viewBox="0 0 270 424" fill="none" xmlns="http://www.w3.org/2000/svg">
<path d="M11.939 189.377L44.464 158.23L55.1754 201.971L11.939 189.377Z" stroke="#E3E3E3" stroke-width="4"/>
<rect x="184.628" y="244.812" width="46" height="46" transform="rotate(-23.2856 184.628 244.812)" stroke="#E3E3E3" stroke-width="4"/>
<circle cx="45" cy="345" r="23" stroke="#E3E3E3" stroke-width="4"/>
<path d="M39.5625 26.25V44.8125H67V26.25H74.75V73H67V52.5H31.875V26.25H39.5625ZM126.075 25.4375C129.304 25.4375 132.721 25.5521 136.325 25.7812C139.929 26.0104 143.679 26.4583 147.575 27.125V71.3125C143.679 71.9792 139.94 72.4271 136.356 72.6562C132.773 72.8854 129.408 73 126.263 73C123.033 73 119.627 72.8854 116.044 72.6562C112.46 72.4271 108.7 71.9792 104.763 71.3125V27.125C108.7 26.4583 112.45 26.0104 116.013 25.7812C119.575 25.5521 122.929 25.4375 126.075 25.4375ZM126.138 65.9375C126.763 65.9375 127.388 65.9375 128.013 65.9375C128.638 65.9375 129.263 65.9167 129.888 65.875C131.908 65.8125 133.721 65.7083 135.325 65.5625C136.95 65.4167 138.471 65.25 139.888 65.0625V33.4375C139.013 33.2917 138.002 33.1667 136.856 33.0625C135.731 32.9375 134.554 32.8333 133.325 32.75C132.117 32.6667 130.888 32.6042 129.638 32.5625C128.388 32.5208 127.221 32.5 126.138 32.5C124.221 32.5 122.565 32.5312 121.169 32.5938C119.773 32.6562 118.544 32.7396 117.481 32.8438C116.419 32.9271 115.492 33.0312 114.7 33.1562C113.908 33.2604 113.179 33.3542 112.513 33.4375V65.0625C113.867 65.25 115.367 65.4167 117.013 65.5625C118.679 65.7083 120.492 65.8125 122.45 65.875C123.075 65.9167 123.69 65.9375 124.294 65.9375C124.898 65.9375 125.513 65.9375 126.138 65.9375ZM184.088 26.25V44.8125H211.525V26.25H219.275V73H211.525V52.5H176.4V26.25H184.088Z" fill="#4B4B4B"/>
<path d="M68.6868 388.015C75.4868 370.815 90.8535 371.848 97.6868 374.515C111.853 377.682 146.848 380.515 133.687 406.015C125.687 421.515 110.896 425.504 95.1868 421.515C79.0189 417.41 61.8868 405.215 68.6868 388.015Z" fill="#1F1E1E" stroke="black" stroke-width="2"/>
<path d="M192.657 387C184.157 373 161.99 376.333 155.157 379C140.99 382.167 115.996 374.5 129.157 400C137.157 415.5 152.948 421.489 168.657 417.5C184.825 413.395 202.256 402.81 192.657 387Z" fill="#1F1E1E" stroke="black" stroke-width="2"/>
<path d="M73.657 221C65.9903 207.667 52.8884 156.347 71.657 127C99.157 84.0001 151.157 98.5 163.657 115.5C175.159 131.143 190.657 165 170.657 209.5C180.657 200 176.157 206 192.657 176.5C178.196 167.62 180.068 158.875 185.157 152.815C193.957 140.015 212.324 139.167 222.657 149C232.157 174.667 237.957 233 185.157 261C192.357 288.2 190.49 296.333 188.657 297C190.157 321.333 190.757 371.7 181.157 378.5C169.657 393.5 136.657 395 129.657 389C120.157 400 91.657 393 80.657 379.5C73.0387 370.15 70.1171 342.889 69.3616 325.354C68.8488 332.882 65.9682 341.413 57.157 342C45.157 342.8 40.8237 320.333 40.157 309C41.4903 286.333 40.157 257 53.657 233.5C58.245 225.514 70.3237 218.333 73.657 221Z" fill="#AC2F2F"/>
<path d="M73.657 221C65.9903 207.667 52.8884 156.347 71.657 127C99.157 84.0001 151.157 98.5 163.657 115.5C175.159 131.143 190.657 165 170.657 209.5C180.657 200 176.157 206 192.657 176.5C169.857 162.5 187.657 148.833 194.657 145.5C188.657 145.5 191.657 164.315 185.157 152.815C193.957 140.015 212.324 139.167 222.657 149C232.157 174.667 237.957 233 185.157 261C192.357 288.2 190.49 296.333 188.657 297C190.157 321.333 190.757 371.7 181.157 378.5C169.657 393.5 136.657 395 129.657 389C120.157 400 91.657 393 80.657 379.5C71.857 368.7 69.3237 334 69.157 318C70.157 325.667 69.157 341.2 57.157 342C45.157 342.8 40.8237 320.333 40.157 309C41.4903 286.333 40.157 257 53.657 233.5C58.245 225.514 70.3237 218.333 73.657 221Z" stroke="black" stroke-width="2"/>
<path d="M111.157 215C112.077 215.08 112.908 215.154 113.657 215.222M113.657 215.222C120.404 215.838 120.557 216 119.657 216L116.657 215.611L115.157 215.417M113.657 215.222L115.157 215.417M115.157 215.417C112.657 230.611 108.857 263.6 113.657 274" stroke="black" stroke-width="2"/>
<path d="M164.054 165.783C159.117 195.374 136.187 215.784 113.203 211.949C90.2191 208.115 75.1577 181.365 80.0949 151.775C85.032 122.185 107.962 101.774 130.946 105.609C153.93 109.444 168.992 136.193 164.054 165.783Z" fill="#4B4B4B" stroke="black" stroke-width="2"/>
<rect x="117.183" y="116.754" width="30.9834" height="28" transform="rotate(21.0911 117.183 116.754)" stroke="white" stroke-width="3"/>
<path d="M69.657 284.5V275C76.457 271.8 172.78 276.5 188.78 287.5C189.28 287 187.857 287.8 188.657 297C157.157 282.889 107.657 284.833 69.657 284.5Z" fill="black" stroke="black" stroke-width="2"/>
<path d="M164.657 166C163.49 176.333 156.857 200.5 139.657 214.5" stroke="black" stroke-width="2" stroke-linecap="round"/>
<path d="M80.657 149C76.3236 163.833 75.357 198.2 106.157 217" stroke="black" stroke-width="2" stroke-linecap="round"/>
<path d="M80.657 143C96.8237 154.333 136.257 173.9 164.657 161.5" stroke="black" stroke-width="2" stroke-linecap="round"/>
<path d="M117.657 159.5C112.824 170.167 104.857 195.4 111.657 211" stroke="black" stroke-width="2" stroke-linecap="round"/>
<path d="M107.657 310.5C113.324 314 128.657 318.9 144.657 310.5" stroke="black" stroke-width="2" stroke-linecap="round"/>
<path d="M125.571 315C123.272 327.517 120.571 359.842 128.157 389" stroke="black" stroke-width="2" stroke-linecap="round"/>
<path d="M79.7804 236C73.993 249.008 63.493 285.735 69.2804 320" stroke="black" stroke-width="2" stroke-linecap="round"/>
<path d="M190.292 172.629C194.759 175.409 214.488 161.874 223.794 154.759C231.28 142 168.465 124.48 183.185 146.321C163.896 157.241 184.708 169.155 190.292 172.629Z" fill="black" stroke="black" stroke-width="2" stroke-linecap="round"/>
<path d="M40.7804 311C41.4743 307.223 68.3474 308.27 69.2804 319C70.2804 330.5 68.9841 339.516 58.7804 341C45.3178 342.958 39.9131 315.722 40.7804 311Z" fill="black" stroke="black" stroke-width="2" stroke-linecap="round"/>
<path d="M211.458 95.5938C211.401 95.0289 211.463 94.4584 211.641 93.9191C211.818 93.3798 212.106 92.8836 212.487 92.4626C212.868 92.0416 213.333 91.7051 213.852 91.4748C214.371 91.2445 214.932 91.1255 215.5 91.1255C216.068 91.1255 216.629 91.2445 217.148 91.4748C217.667 91.7051 218.132 92.0416 218.513 92.4626C218.894 92.8836 219.182 93.3798 219.359 93.9191C219.537 94.4584 219.599 95.0289 219.542 95.5938L217.966 121.391C217.905 122.002 217.619 122.57 217.163 122.982C216.708 123.395 216.115 123.623 215.5 123.623C214.885 123.623 214.292 123.395 213.837 122.982C213.381 122.57 213.095 122.002 213.034 121.391L211.458 95.5938ZM211.438 131.75C211.438 130.673 211.866 129.639 212.627 128.877C213.389 128.116 214.423 127.688 215.5 127.688C216.577 127.688 217.611 128.116 218.373 128.877C219.134 129.639 219.562 130.673 219.562 131.75C219.562 132.827 219.134 133.861 218.373 134.623C217.611 135.385 216.577 135.813 215.5 135.813C214.423 135.813 213.389 135.385 212.627 134.623C211.866 133.861 211.438 132.827 211.438 131.75Z" fill="#4B4B4B"/>
<path d="M234.014 112.025C233.975 111.642 234.018 111.256 234.138 110.891C234.258 110.526 234.453 110.19 234.711 109.905C234.968 109.62 235.283 109.392 235.634 109.236C235.986 109.081 236.366 109 236.75 109C237.134 109 237.514 109.081 237.866 109.236C238.217 109.392 238.532 109.62 238.789 109.905C239.047 110.19 239.242 110.526 239.362 110.891C239.482 111.256 239.525 111.642 239.486 112.025L238.419 129.487C238.378 129.901 238.184 130.285 237.876 130.565C237.567 130.844 237.166 130.998 236.75 130.998C236.334 130.998 235.933 130.844 235.624 130.565C235.316 130.285 235.122 129.901 235.081 129.487L234.014 112.025ZM234 136.5C234 135.77 234.29 135.071 234.805 134.555C235.321 134.039 236.021 133.75 236.75 133.75C237.479 133.75 238.179 134.039 238.695 134.555C239.21 135.071 239.5 135.77 239.5 136.5C239.5 137.229 239.21 137.928 238.695 138.444C238.179 138.96 237.479 139.25 236.75 139.25C236.021 139.25 235.321 138.96 234.805 138.444C234.29 137.928 234 137.229 234 136.5Z" fill="#4B4B4B"/>
<path d="M254.259 99.425C254.234 99.1817 254.261 98.9359 254.338 98.7036C254.414 98.4713 254.538 98.2576 254.702 98.0762C254.866 97.8949 255.067 97.7499 255.29 97.6507C255.514 97.5515 255.755 97.5002 256 97.5002C256.245 97.5002 256.486 97.5515 256.71 97.6507C256.933 97.7499 257.134 97.8949 257.298 98.0762C257.462 98.2576 257.586 98.4713 257.662 98.7036C257.739 98.9359 257.766 99.1817 257.741 99.425L257.062 110.538C257.036 110.801 256.913 111.045 256.716 111.223C256.52 111.401 256.265 111.499 256 111.499C255.735 111.499 255.48 111.401 255.284 111.223C255.087 111.045 254.964 110.801 254.938 110.538L254.259 99.425ZM254.25 115C254.25 114.536 254.434 114.091 254.763 113.763C255.091 113.434 255.536 113.25 256 113.25C256.464 113.25 256.909 113.434 257.237 113.763C257.566 114.091 257.75 114.536 257.75 115C257.75 115.464 257.566 115.909 257.237 116.237C256.909 116.566 256.464 116.75 256 116.75C255.536 116.75 255.091 116.566 254.763 116.237C254.434 115.909 254.25 115.464 254.25 115Z" fill="#4B4B4B"/>
</svg>
