<svg width="270" height="292" viewBox="0 0 270 292" fill="none" xmlns="http://www.w3.org/2000/svg">
<ellipse cx="236.247" cy="155.329" rx="2.53125" ry="2.49943" fill="#FF9F67"/>
<ellipse cx="200.809" cy="236.977" rx="4.21875" ry="4.16571" fill="#39BEE8"/>
<ellipse cx="116.434" cy="61.1835" rx="4.21875" ry="4.16571" fill="#B3DB64"/>
<path fill-rule="evenodd" clip-rule="evenodd" d="M60.0899 159.786C60.6074 157.714 61.3621 155.717 62.3538 153.795C62.5125 153.488 62.758 153.281 63.0904 153.174C63.4228 153.068 63.7447 153.093 64.0561 153.249C64.2056 153.324 64.3349 153.425 64.4439 153.551C64.5529 153.677 64.6333 153.819 64.6852 153.977C64.7355 154.13 64.7552 154.286 64.7443 154.447C64.7333 154.607 64.6924 154.76 64.6217 154.905C64.6196 154.909 64.6176 154.914 64.6155 154.918C64.6134 154.922 64.6113 154.926 64.6092 154.93C63.7057 156.681 63.0185 158.499 62.5475 160.385C62.4652 160.714 62.278 160.969 61.9859 161.147C61.6938 161.326 61.38 161.379 61.0445 161.306C61.0397 161.304 61.0348 161.303 61.03 161.302C61.0252 161.301 61.0204 161.3 61.0156 161.299C60.8527 161.259 60.7036 161.19 60.5684 161.092C60.4333 160.994 60.3223 160.874 60.2355 160.732C60.1487 160.59 60.0927 160.437 60.0675 160.273C60.0422 160.11 60.0497 159.947 60.0899 159.786ZM61.8131 168.294C61.7961 167.954 61.661 167.668 61.4079 167.438C61.1548 167.207 60.856 167.096 60.5115 167.106C60.5073 167.106 60.5032 167.106 60.499 167.107C60.4949 167.107 60.4907 167.107 60.4866 167.107C60.3189 167.115 60.1593 167.155 60.0076 167.226C59.8559 167.297 59.7237 167.394 59.611 167.516C59.4983 167.639 59.4137 167.779 59.3572 167.935C59.3007 168.091 59.2766 168.252 59.2849 168.417C59.4207 171.131 59.8981 173.948 60.717 176.867C60.7618 177.026 60.8359 177.171 60.9392 177.302C61.0425 177.433 61.1672 177.539 61.3132 177.62C61.4593 177.702 61.6156 177.753 61.7822 177.773C61.9487 177.794 62.1129 177.782 62.2746 177.737C62.2774 177.737 62.2802 177.736 62.2829 177.735C62.2857 177.734 62.2885 177.733 62.2912 177.733C62.6235 177.637 62.8739 177.44 63.0423 177.141C63.2108 176.843 63.2488 176.529 63.1564 176.199C62.3874 173.458 61.9396 170.823 61.8131 168.294ZM66.006 183.84C65.8626 183.528 65.6288 183.311 65.3045 183.188C64.9803 183.066 64.6594 183.074 64.342 183.213C64.3401 183.214 64.3382 183.215 64.3363 183.215C64.3344 183.216 64.3325 183.217 64.3306 183.218C64.1777 183.286 64.044 183.381 63.9293 183.502C63.8146 183.623 63.7278 183.761 63.6687 183.916C63.6097 184.071 63.5829 184.232 63.5885 184.398C63.5941 184.563 63.6315 184.721 63.7008 184.872C64.8143 187.296 66.1367 189.783 67.6681 192.335C67.8463 192.631 68.1047 192.823 68.4433 192.908C68.7819 192.994 69.1016 192.948 69.4022 192.772L69.4096 192.768C69.5521 192.683 69.673 192.575 69.7723 192.443C69.8716 192.311 69.9418 192.166 69.983 192.007C70.0246 191.846 70.0335 191.684 70.0097 191.52C69.9859 191.356 69.9312 191.203 69.8456 191.06C68.3612 188.587 67.0813 186.181 66.006 183.84ZM148.522 204.844C148.298 204.583 148.2 204.282 148.227 203.941C148.253 203.599 148.398 203.317 148.66 203.093C150.659 201.382 152.518 199.533 154.236 197.545C154.307 197.464 154.377 197.382 154.447 197.301C154.672 197.037 154.959 196.89 155.307 196.861C155.655 196.832 155.963 196.928 156.23 197.151C156.497 197.373 156.646 197.656 156.676 198C156.705 198.344 156.607 198.648 156.382 198.912C154.52 201.093 152.498 203.116 150.317 204.982C150.053 205.208 149.747 205.308 149.398 205.284C149.049 205.259 148.761 205.116 148.532 204.855C148.53 204.854 148.529 204.852 148.527 204.85C148.525 204.848 148.524 204.846 148.522 204.844ZM74.6262 197.735C74.3997 197.476 74.1137 197.333 73.7682 197.306C73.4227 197.279 73.1174 197.376 72.8525 197.596C72.8506 197.598 72.8487 197.599 72.8468 197.601C72.8449 197.603 72.843 197.604 72.8411 197.606C72.7141 197.714 72.6129 197.842 72.5376 197.99C72.4622 198.138 72.4184 198.295 72.4062 198.46C72.3939 198.626 72.4142 198.787 72.4669 198.944C72.5197 199.102 72.6009 199.243 72.7106 199.368C74.5954 201.523 76.64 203.521 78.8443 205.362C78.9724 205.469 79.1164 205.547 79.2763 205.598C79.4361 205.648 79.5997 205.667 79.7669 205.653C79.9342 205.639 80.0924 205.594 80.2416 205.518C80.3907 205.442 80.5195 205.341 80.6279 205.214C80.6295 205.213 80.6311 205.211 80.6327 205.209C80.6342 205.207 80.6358 205.205 80.6373 205.203C80.8581 204.939 80.953 204.637 80.9221 204.296C80.8912 203.955 80.7435 203.674 80.4788 203.453C78.3755 201.697 76.4246 199.791 74.6262 197.735ZM134.047 212.331C133.985 212.482 133.953 212.639 133.953 212.802C133.953 212.965 133.985 213.122 134.047 213.273C134.048 213.276 134.049 213.278 134.05 213.28C134.051 213.283 134.052 213.285 134.053 213.287C134.188 213.605 134.418 213.829 134.742 213.959C135.065 214.09 135.388 214.088 135.71 213.954C138.367 212.849 140.92 211.544 143.371 210.039C143.668 209.856 143.856 209.597 143.935 209.261C144.014 208.925 143.962 208.61 143.777 208.317C143.776 208.315 143.774 208.313 143.773 208.311C143.772 208.309 143.77 208.307 143.769 208.305C143.582 208.016 143.32 207.834 142.982 207.759C142.644 207.683 142.328 207.736 142.034 207.917C139.697 209.352 137.261 210.597 134.728 211.65C134.573 211.715 134.437 211.806 134.319 211.924C134.201 212.041 134.11 212.177 134.047 212.331ZM86.205 208.058C86.0445 208.097 85.8973 208.164 85.7634 208.26C85.6296 208.356 85.5189 208.473 85.4315 208.611C85.4302 208.613 85.4288 208.615 85.4275 208.618C85.4262 208.62 85.4249 208.622 85.4237 208.624C85.2423 208.919 85.193 209.234 85.276 209.569C85.359 209.904 85.5498 210.161 85.8485 210.341C88.3171 211.821 90.8848 213.1 93.5515 214.179C93.8749 214.31 94.1978 214.308 94.5201 214.175C94.8425 214.042 95.0699 213.815 95.2024 213.496C95.2034 213.494 95.2043 213.491 95.2052 213.489C95.2061 213.487 95.207 213.485 95.2079 213.482C95.2688 213.331 95.2984 213.173 95.2968 213.01C95.2952 212.847 95.2624 212.69 95.1986 212.54C95.1338 212.387 95.0418 212.252 94.9226 212.135C94.8035 212.018 94.6663 211.929 94.511 211.866C91.9671 210.837 89.5175 209.616 87.1623 208.204C87.0189 208.118 86.8642 208.063 86.6984 208.037C86.5325 208.012 86.368 208.019 86.205 208.058ZM118.725 215.523C118.379 215.552 118.094 215.696 117.869 215.957C117.644 216.217 117.543 216.517 117.568 216.859C117.569 216.861 117.569 216.864 117.569 216.866C117.569 216.868 117.569 216.871 117.57 216.873C117.584 217.038 117.629 217.195 117.706 217.342C117.783 217.489 117.886 217.616 118.014 217.723C118.142 217.83 118.286 217.909 118.446 217.959C118.606 218.01 118.77 218.028 118.937 218.014C119.324 217.982 119.711 217.946 120.099 217.905C122.61 217.645 125.083 217.22 127.517 216.63C127.857 216.548 128.117 216.359 128.298 216.064C128.479 215.769 128.528 215.454 128.445 215.118C128.445 215.116 128.444 215.114 128.443 215.111C128.443 215.109 128.442 215.107 128.441 215.104C128.355 214.773 128.163 214.519 127.865 214.344C127.568 214.168 127.251 214.121 126.914 214.202C124.591 214.765 122.231 215.171 119.834 215.42C119.464 215.458 119.094 215.493 118.725 215.523ZM101.392 214.498C101.252 214.583 101.133 214.692 101.036 214.824C100.938 214.956 100.87 215.101 100.83 215.26C100.829 215.262 100.829 215.264 100.828 215.267C100.828 215.269 100.827 215.272 100.826 215.274C100.747 215.61 100.799 215.925 100.983 216.218C101.167 216.511 101.429 216.698 101.769 216.777C104.577 217.428 107.421 217.857 110.301 218.064C110.65 218.089 110.956 217.989 111.221 217.763C111.485 217.537 111.63 217.253 111.655 216.908C111.656 216.906 111.656 216.903 111.656 216.901C111.656 216.899 111.656 216.896 111.656 216.894C111.677 216.552 111.574 216.252 111.346 215.995C111.117 215.737 110.831 215.596 110.485 215.571C107.738 215.374 105.026 214.965 102.348 214.343C102.185 214.305 102.02 214.3 101.855 214.327C101.689 214.353 101.535 214.41 101.392 214.498Z" fill="#0D0938"/>
<rect width="14.9515" height="3.40712" rx="1.70356" transform="matrix(0.60757 -0.796137 0.801094 0.596079 208.144 115.34)" fill="#0D0938"/>
<rect width="15.083" height="3.37728" rx="1.68864" transform="matrix(0.998324 -0.068932 -0.0705895 -0.996786 217.881 133.546)" fill="#0D0938"/>
<rect width="15.0398" height="3.38713" rx="1.69356" transform="matrix(0.916865 -0.403083 -0.410397 -0.910178 216.066 124.537)" fill="#0D0938"/>
<ellipse rx="59.0625" ry="41.6571" transform="matrix(-1 0 0 1 145.123 136.166)" fill="#F8F8F8"/>
<path fill-rule="evenodd" clip-rule="evenodd" d="M155.257 192.898C124.893 192.898 100.279 174.022 100.279 150.737C100.279 127.452 124.893 108.575 155.257 108.575C185.621 108.575 210.236 127.452 210.236 150.737C210.236 158.56 207.457 165.887 202.614 172.166L210.923 190.092C211.974 192.361 209.53 194.661 207.329 193.474L189.384 183.794C180.008 189.494 168.151 192.898 155.257 192.898Z" fill="white"/>
<path fill-rule="evenodd" clip-rule="evenodd" d="M184.225 179.091C174.704 184.829 162.6 188.292 149.326 188.292C119.516 188.292 94.8106 169.235 94.8106 146.45C94.8106 122.221 119.516 103.165 149.326 103.165C180.466 103.165 205.171 122.221 205.171 146.45C205.171 154.066 202.411 161.265 197.574 167.475L206.426 186.686C206.622 187.111 206.673 187.552 206.58 188.009C206.487 188.466 206.267 188.854 205.921 189.171C205.575 189.488 205.167 189.675 204.698 189.732C204.229 189.789 203.788 189.705 203.374 189.481L184.225 179.091ZM112.94 118.263C103.047 126.048 98.1007 135.443 98.1008 146.45C98.1008 156.795 103.037 165.762 112.91 173.351C123.049 181.145 135.188 185.042 149.326 185.042C161.798 185.042 172.859 182.134 182.51 176.318C183.013 176.014 183.56 175.856 184.149 175.843C184.739 175.829 185.292 175.963 185.809 176.243L202.062 185.061L194.578 168.821C194.326 168.273 194.235 167.701 194.304 167.104C194.374 166.507 194.594 165.97 194.965 165.494C199.575 159.576 201.88 153.228 201.88 146.45C201.88 135.401 196.885 126.011 186.896 118.279C176.676 110.369 164.152 106.415 149.326 106.415C135.106 106.415 122.978 110.364 112.94 118.263Z" fill="#0080FF"/>
<path fill-rule="evenodd" clip-rule="evenodd" d="M140.904 146.997C140.904 152.979 145.815 157.828 151.873 157.828C157.931 157.828 162.841 152.979 162.841 146.997C162.841 141.016 157.931 136.167 151.873 136.167C145.815 136.167 140.904 141.016 140.904 146.997ZM146.443 152.358C147.942 153.838 149.752 154.579 151.872 154.579C153.992 154.579 155.802 153.838 157.301 152.358C158.801 150.878 159.55 149.091 159.55 146.997C159.55 144.903 158.801 143.116 157.301 141.636C155.802 140.156 153.992 139.415 151.872 139.415C149.752 139.415 147.942 140.156 146.443 141.636C144.944 143.116 144.194 144.903 144.194 146.997C144.194 149.091 144.944 150.878 146.443 152.358Z" fill="black"/>
<path fill-rule="evenodd" clip-rule="evenodd" d="M171.279 146.997C171.279 150.678 174.301 153.662 178.029 153.662C181.757 153.662 184.779 150.678 184.779 146.997C184.779 143.316 181.757 140.332 178.029 140.332C174.301 140.332 171.279 143.316 171.279 146.997ZM174.569 146.997C174.569 149.274 175.722 150.413 178.028 150.413C180.335 150.413 181.488 149.274 181.488 146.997C181.488 144.72 180.335 143.581 178.028 143.581C175.722 143.581 174.569 144.72 174.569 146.997Z" fill="black"/>
<path fill-rule="evenodd" clip-rule="evenodd" d="M119.81 146.997C119.81 150.678 122.832 153.662 126.56 153.662C130.288 153.662 133.31 150.678 133.31 146.997C133.31 143.316 130.288 140.332 126.56 140.332C122.832 140.332 119.81 143.316 119.81 146.997ZM123.1 146.997C123.1 149.274 124.253 150.413 126.56 150.413C128.866 150.413 130.019 149.274 130.019 146.997C130.019 144.72 128.866 143.581 126.56 143.581C124.253 143.581 123.1 144.72 123.1 146.997Z" fill="black"/>
<ellipse cx="84.3717" cy="122.42" rx="45.5625" ry="32.076" fill="#F8F8F8"/>
<path fill-rule="evenodd" clip-rule="evenodd" d="M85.6373 150.33C104.976 150.33 120.653 139.326 120.653 125.752C120.653 112.178 104.976 101.174 85.6373 101.174C66.2987 101.174 50.6217 112.178 50.6217 125.752C50.6217 130.313 52.3916 134.584 55.4757 138.244L50.8011 147.476C49.9328 149.191 51.7473 151.024 53.4708 150.173L63.902 145.023C69.8735 148.345 77.4252 150.33 85.6373 150.33Z" fill="white"/>
<path fill-rule="evenodd" clip-rule="evenodd" d="M68.1325 140.851C74.1738 144.165 81.855 146.164 90.2781 146.164C109.195 146.164 124.872 135.16 124.872 122.003C124.872 108.012 109.195 97.0085 90.2781 97.0085C70.5176 97.0085 54.8406 108.012 54.8406 122.003C54.8406 126.4 56.5919 130.558 59.6617 134.144L54.5722 144.195C54.4099 144.515 54.3578 144.852 54.4159 145.206C54.4741 145.56 54.6315 145.864 54.8882 146.117C55.1449 146.37 55.4523 146.526 55.8107 146.583C56.169 146.641 56.5104 146.589 56.8351 146.429L68.1325 140.851ZM113.183 106.283C119.288 110.655 122.34 115.895 122.34 122.003C122.34 127.726 119.295 132.718 113.205 136.978C106.833 141.436 99.1902 143.665 90.278 143.665C82.4093 143.665 75.4371 141.999 69.3614 138.666C68.9962 138.466 68.6048 138.362 68.1872 138.353C67.7696 138.344 67.374 138.431 67.0003 138.616L57.9693 143.075L61.9256 135.262C62.1519 134.815 62.235 134.343 62.1749 133.847C62.1148 133.351 61.9214 132.912 61.5947 132.53C58.7794 129.241 57.3717 125.732 57.3717 122.003C57.3717 115.872 60.4541 110.636 66.6188 106.294C73.0427 101.77 80.9291 99.5082 90.278 99.5082C99.2406 99.5082 106.875 101.766 113.183 106.283Z" fill="#0080FF"/>
<rect width="2.51539" height="26.8308" rx="1.25769" transform="matrix(0.711565 0.70262 -0.711565 0.70262 99.3496 111.693)" fill="#0D0938"/>
<rect width="2.51539" height="26.8308" rx="1.25769" transform="matrix(-0.711565 0.70262 0.711565 0.70262 82.0486 111.693)" fill="#0D0938"/>
</svg>
