<svg width="27" height="27" viewBox="0 0 27 27" fill="none" xmlns="http://www.w3.org/2000/svg">
<g clip-path="url(#clip0_63:227)">
<path d="M8.20312 13.125C8.20312 13.5601 8.03027 13.9774 7.7226 14.2851C7.41492 14.5928 6.99762 14.7656 6.5625 14.7656C6.12738 14.7656 5.71008 14.5928 5.4024 14.2851C5.09473 13.9774 4.92188 13.5601 4.92188 13.125C4.92188 12.6899 5.09473 12.2726 5.4024 11.9649C5.71008 11.6572 6.12738 11.4844 6.5625 11.4844C6.99762 11.4844 7.41492 11.6572 7.7226 11.9649C8.03027 12.2726 8.20312 12.6899 8.20312 13.125ZM14.7656 13.125C14.7656 13.5601 14.5928 13.9774 14.2851 14.2851C13.9774 14.5928 13.5601 14.7656 13.125 14.7656C12.6899 14.7656 12.2726 14.5928 11.9649 14.2851C11.6572 13.9774 11.4844 13.5601 11.4844 13.125C11.4844 12.6899 11.6572 12.2726 11.9649 11.9649C12.2726 11.6572 12.6899 11.4844 13.125 11.4844C13.5601 11.4844 13.9774 11.6572 14.2851 11.9649C14.5928 12.2726 14.7656 12.6899 14.7656 13.125ZM19.6875 14.7656C20.1226 14.7656 20.5399 14.5928 20.8476 14.2851C21.1553 13.9774 21.3281 13.5601 21.3281 13.125C21.3281 12.6899 21.1553 12.2726 20.8476 11.9649C20.5399 11.6572 20.1226 11.4844 19.6875 11.4844C19.2524 11.4844 18.8351 11.6572 18.5274 11.9649C18.2197 12.2726 18.0469 12.6899 18.0469 13.125C18.0469 13.5601 18.2197 13.9774 18.5274 14.2851C18.8351 14.5928 19.2524 14.7656 19.6875 14.7656Z" fill="black"/>
<path d="M3.55195 25.9268L3.58477 25.9202C6.58711 25.3247 8.42133 24.5388 9.27445 24.1073C10.5305 24.4423 11.8251 24.6111 13.125 24.6094C20.3733 24.6094 26.25 19.4677 26.25 13.125C26.25 6.78234 20.3733 1.64062 13.125 1.64062C5.87672 1.64062 0 6.78234 0 13.125C0 16.0125 1.21898 18.6539 3.23203 20.6719C3.0912 21.9681 2.80276 23.2441 2.37234 24.4748L2.36742 24.4929C2.2451 24.8454 2.1116 25.1939 1.96711 25.538C1.8375 25.8431 2.08852 26.1844 2.415 26.1319C2.79507 26.0697 3.1741 26.0013 3.55195 25.9268ZM4.86445 20.8277C4.88743 20.5875 4.85715 20.3452 4.77576 20.1181C4.69438 19.8909 4.56389 19.6845 4.39359 19.5136C2.65453 17.768 1.64062 15.5334 1.64062 13.125C1.64062 7.88813 6.56906 3.28125 13.125 3.28125C19.6809 3.28125 24.6094 7.88813 24.6094 13.125C24.6094 18.3635 19.6809 22.9688 13.125 22.9688C11.9685 22.9704 10.8168 22.8204 9.69938 22.5225C9.30887 22.4179 8.89348 22.4611 8.53289 22.6439C7.89797 22.9655 6.49852 23.5791 4.21148 24.109C4.53055 23.0379 4.74915 21.9394 4.86445 20.8277Z" fill="black"/>
</g>
<defs>
<clipPath id="clip0_63:227">
<rect width="26.25" height="26.25" fill="white"/>
</clipPath>
</defs>
</svg>
