<svg width="32" height="32" viewBox="0 0 32 32" fill="none" xmlns="http://www.w3.org/2000/svg">
<path d="M11 24H21V26H11V24Z" fill="black"/>
<path d="M13 28H19V30H13V28Z" fill="black"/>
<path d="M10.815 18.14C9.87846 17.4257 9.13189 16.4921 8.64101 15.4214C8.15013 14.3507 7.93 13.1758 8 12C8.00265 9.87908 8.84635 7.84579 10.3461 6.34607C11.8458 4.84635 13.8791 4.00265 16 4V2C13.3487 2.00291 10.8069 3.05742 8.93215 4.93215C7.05742 6.80688 6.00291 9.34873 6 12C5.9322 13.4528 6.21055 14.9009 6.81211 16.225C7.41366 17.5491 8.32122 18.7114 9.46 19.616C10.472 20.551 11 21.081 11 22H13C13 20.16 11.89 19.134 10.815 18.14Z" fill="black"/>
<path d="M21.178 18.143C20.107 19.135 19 20.16 19 22H21C21 21.08 21.526 20.55 22.535 19.614C23.6736 18.7094 24.5814 17.5476 25.1837 16.224C25.7861 14.9004 26.0658 13.4527 26 12H24C24.0681 13.1767 23.8464 14.3521 23.3544 15.4231C22.8624 16.4942 22.1151 17.4281 21.178 18.143Z" fill="black"/>
<path d="M18.5 9C19.3284 9 20 8.32843 20 7.5C20 6.67157 19.3284 6 18.5 6C17.6716 6 17 6.67157 17 7.5C17 8.32843 17.6716 9 18.5 9Z" fill="black"/>
<path d="M28.5 9C29.3284 9 30 8.32843 30 7.5C30 6.67157 29.3284 6 28.5 6C27.6716 6 27 6.67157 27 7.5C27 8.32843 27.6716 9 28.5 9Z" fill="black"/>
<path d="M23.5 9C24.3284 9 25 8.32843 25 7.5C25 6.67157 24.3284 6 23.5 6C22.6716 6 22 6.67157 22 7.5C22 8.32843 22.6716 9 23.5 9Z" fill="black"/>
</svg>
