<svg width="30" height="30" viewBox="0 0 30 30" fill="none" xmlns="http://www.w3.org/2000/svg">
<path d="M7.5 3.75C6.50544 3.75 5.55161 4.14509 4.84835 4.84835C4.14509 5.55161 3.75 6.50544 3.75 7.5V22.5C3.75 23.4946 4.14509 24.4484 4.84835 25.1517C5.55161 25.8549 6.50544 26.25 7.5 26.25H13.75C14.0815 26.25 14.3995 26.1183 14.6339 25.8839C14.8683 25.6495 15 25.3315 15 25C15 24.6685 14.8683 24.3505 14.6339 24.1161C14.3995 23.8817 14.0815 23.75 13.75 23.75H7.5C7.16848 23.75 6.85054 23.6183 6.61612 23.3839C6.3817 23.1495 6.25 22.8315 6.25 22.5V7.5C6.25 7.16848 6.3817 6.85054 6.61612 6.61612C6.85054 6.3817 7.16848 6.25 7.5 6.25H13.75C14.0815 6.25 14.3995 6.1183 14.6339 5.88388C14.8683 5.64946 15 5.33152 15 5C15 4.66848 14.8683 4.35054 14.6339 4.11612C14.3995 3.8817 14.0815 3.75 13.75 3.75H7.5Z" fill="black"/>
<path d="M19.1163 9.11623C19.3507 8.88189 19.6685 8.75024 20 8.75024C20.3315 8.75024 20.6493 8.88189 20.8838 9.11623L25.8838 14.1162C26.1181 14.3506 26.2497 14.6685 26.2497 15C26.2497 15.3314 26.1181 15.6493 25.8838 15.8837L20.8838 20.8837C20.648 21.1114 20.3322 21.2374 20.0045 21.2346C19.6768 21.2317 19.3632 21.1003 19.1315 20.8685C18.8997 20.6367 18.7683 20.3232 18.7654 19.9955C18.7626 19.6677 18.8886 19.352 19.1163 19.1162L21.9825 16.25H12.5C12.1685 16.25 11.8505 16.1183 11.6161 15.8839C11.3817 15.6494 11.25 15.3315 11.25 15C11.25 14.6685 11.3817 14.3505 11.6161 14.1161C11.8505 13.8817 12.1685 13.75 12.5 13.75H21.9825L19.1163 10.8837C18.8819 10.6493 18.7503 10.3314 18.7503 9.99998C18.7503 9.66852 18.8819 9.35064 19.1163 9.11623Z" fill="black"/>
</svg>
