<svg width="28" height="28" viewBox="0 0 28 28" fill="none" xmlns="http://www.w3.org/2000/svg">
<path d="M19.39 7.245C19.2692 7.14938 19.1307 7.07863 18.9825 7.03682C18.8342 6.99501 18.6791 6.98298 18.5262 7.00142C18.3733 7.01986 18.2255 7.06841 18.0914 7.14425C17.9573 7.2201 17.8396 7.32175 17.745 7.44333L9.57835 17.9433L5.57668 13.0667C5.48282 12.9417 5.36481 12.8369 5.22966 12.7584C5.09451 12.68 4.94497 12.6295 4.78992 12.6099C4.63488 12.5903 4.47748 12.6021 4.32708 12.6446C4.17668 12.687 4.03633 12.7592 3.91438 12.857C3.79242 12.9547 3.69135 13.0759 3.61714 13.2134C3.54294 13.351 3.49712 13.502 3.48241 13.6576C3.4677 13.8132 3.4844 13.9701 3.53152 14.1191C3.57863 14.2681 3.6552 14.4062 3.75668 14.525L8.62168 20.5683C8.73148 20.7037 8.87022 20.8127 9.0277 20.8874C9.18517 20.9621 9.35739 21.0006 9.53168 21C9.71669 21.0083 9.901 20.9724 10.0694 20.8953C10.2378 20.8182 10.3854 20.7021 10.5 20.5567L19.635 8.89C19.7281 8.76636 19.7957 8.62543 19.8339 8.47541C19.872 8.32538 19.8799 8.16928 19.8571 8.01618C19.8343 7.86308 19.7812 7.71604 19.7011 7.58364C19.6209 7.45125 19.5151 7.33613 19.39 7.245ZM25.2233 7.245C25.1026 7.14938 24.9641 7.07863 24.8158 7.03682C24.6675 6.99501 24.5125 6.98298 24.3595 7.00142C24.2066 7.01986 24.0588 7.06841 23.9247 7.14425C23.7907 7.2201 23.6729 7.32175 23.5783 7.44333L15.4117 17.9433L14.7 17.0683L13.23 18.9583L14.5133 20.5567C14.6232 20.692 14.7619 20.8011 14.9194 20.8758C15.0768 20.9505 15.2491 20.9889 15.4233 20.9883C15.5986 20.9875 15.7714 20.9472 15.9289 20.8705C16.0865 20.7937 16.2247 20.6825 16.3333 20.545L25.4683 8.87833C25.5597 8.75505 25.6258 8.61498 25.6629 8.46613C25.7 8.31727 25.7074 8.16256 25.6846 8.01085C25.6619 7.85914 25.6094 7.7134 25.5303 7.58198C25.4511 7.45057 25.3468 7.33606 25.2233 7.245Z" fill="black"/>
<path d="M10.1617 15.2367L11.6667 13.3467L11.4334 13.0667C11.3412 12.9391 11.2243 12.8314 11.0895 12.7502C10.9547 12.669 10.8048 12.6159 10.649 12.5941C10.4931 12.5723 10.3345 12.5822 10.1825 12.6233C10.0306 12.6645 9.88861 12.7359 9.76502 12.8333C9.64518 12.9296 9.54554 13.0486 9.47184 13.1835C9.39813 13.3184 9.35182 13.4666 9.33556 13.6195C9.31929 13.7723 9.3334 13.9269 9.37707 14.0743C9.42074 14.2217 9.49311 14.359 9.59002 14.4783L10.1617 15.2367Z" fill="black"/>
</svg>
