<svg width="26" height="26" viewBox="0 0 26 26" fill="none" xmlns="http://www.w3.org/2000/svg">
<g clip-path="url(#clip0_62:39)">
<g filter="url(#filter0_d_62:39)">
<path d="M23.4794 20.0995C22.783 19.4786 22.1733 18.7668 21.6667 17.9833C21.1136 16.9018 20.7821 15.7208 20.6917 14.5095V10.9417C20.6964 9.03906 20.0063 7.20018 18.7509 5.77054C17.4954 4.3409 15.7612 3.41891 13.8739 3.17779V2.24612C13.8739 1.99041 13.7723 1.74517 13.5915 1.56435C13.4107 1.38353 13.1654 1.28195 12.9097 1.28195C12.654 1.28195 12.4088 1.38353 12.228 1.56435C12.0471 1.74517 11.9456 1.99041 11.9456 2.24612V3.19223C10.0752 3.45073 8.36187 4.3783 7.12294 5.80314C5.88401 7.22798 5.20342 9.05353 5.20722 10.9417V14.5095C5.11677 15.7208 4.78528 16.9018 4.23222 17.9833C3.73453 18.765 3.13459 19.4767 2.44833 20.0995C2.3713 20.1671 2.30955 20.2504 2.26721 20.3438C2.22487 20.4372 2.20291 20.5386 2.20278 20.6411V21.6233C2.20278 21.8149 2.27887 21.9986 2.41431 22.134C2.54975 22.2695 2.73345 22.3456 2.925 22.3456H23.0028C23.1943 22.3456 23.378 22.2695 23.5135 22.134C23.6489 21.9986 23.725 21.8149 23.725 21.6233V20.6411C23.7249 20.5386 23.7029 20.4372 23.6606 20.3438C23.6182 20.2504 23.5565 20.1671 23.4794 20.0995ZM3.705 20.9011C4.37696 20.252 4.9686 19.5246 5.46722 18.7345C6.16389 17.4283 6.57037 15.9871 6.65889 14.5095V10.9417C6.63025 10.0953 6.77222 9.25173 7.07637 8.46132C7.38051 7.67092 7.8406 6.9498 8.42923 6.3409C9.01787 5.73201 9.72302 5.24779 10.5027 4.91709C11.2824 4.58639 12.1206 4.41597 12.9675 4.41597C13.8144 4.41597 14.6526 4.58639 15.4323 4.91709C16.212 5.24779 16.9171 5.73201 17.5058 6.3409C18.0944 6.9498 18.5545 7.67092 18.8586 8.46132C19.1628 9.25173 19.3048 10.0953 19.2761 10.9417V14.5095C19.3646 15.9871 19.7711 17.4283 20.4678 18.7345C20.9664 19.5246 21.558 20.252 22.23 20.9011H3.705Z" fill="#595959"/>
</g>
<path d="M13 24.7578C13.455 24.7473 13.8915 24.5763 14.2325 24.2749C14.5735 23.9736 14.797 23.5613 14.8633 23.1111H11.0644C11.1327 23.5736 11.3666 23.9955 11.7226 24.2984C12.0786 24.6013 12.5326 24.7645 13 24.7578V24.7578Z" fill="#595959"/>
</g>
<defs>
<filter id="filter0_d_62:39" x="-7.79722" y="-4.71805" width="41.5222" height="41.0636" filterUnits="userSpaceOnUse" color-interpolation-filters="sRGB">
<feFlood flood-opacity="0" result="BackgroundImageFix"/>
<feColorMatrix in="SourceAlpha" type="matrix" values="0 0 0 0 0 0 0 0 0 0 0 0 0 0 0 0 0 0 127 0" result="hardAlpha"/>
<feOffset dy="4"/>
<feGaussianBlur stdDeviation="5"/>
<feComposite in2="hardAlpha" operator="out"/>
<feColorMatrix type="matrix" values="0 0 0 0 0 0 0 0 0 0 0 0 0 0 0 0 0 0 0.25 0"/>
<feBlend mode="normal" in2="BackgroundImageFix" result="effect1_dropShadow_62:39"/>
<feBlend mode="normal" in="SourceGraphic" in2="effect1_dropShadow_62:39" result="shape"/>
</filter>
<clipPath id="clip0_62:39">
<rect width="26" height="26" fill="white"/>
</clipPath>
</defs>
</svg>
