<svg width="23" height="22" viewBox="0 0 23 22" fill="none" xmlns="http://www.w3.org/2000/svg">
<path d="M21.711 13.7964L20.012 12.4213C20.0924 11.9547 20.1339 11.4784 20.1339 11.002C20.1339 10.5256 20.0924 10.0492 20.012 9.5827L21.711 8.2076C21.8391 8.10375 21.9308 7.96543 21.9739 7.81103C22.017 7.65663 22.0095 7.49348 21.9522 7.34325L21.9289 7.27941C21.4611 6.04189 20.7607 4.89469 19.8615 3.89324L19.8148 3.84167C19.7058 3.72025 19.5604 3.63297 19.3978 3.59133C19.2353 3.54968 19.0633 3.55564 18.9044 3.6084L16.7955 4.31805C16.0174 3.71399 15.1484 3.23761 14.2094 2.90366L13.8022 0.816463C13.7714 0.659413 13.691 0.51493 13.5714 0.40221C13.4519 0.28949 13.299 0.213868 13.1329 0.185392L13.0629 0.173115C11.7115 -0.0577049 10.29 -0.0577049 8.9386 0.173115L8.86856 0.185392C8.70254 0.213868 8.54961 0.28949 8.43007 0.40221C8.31054 0.51493 8.23006 0.659413 8.19934 0.816463L7.7895 2.91348C6.858 3.2475 5.99054 3.72362 5.22153 4.32296L3.09713 3.6084C2.93829 3.55522 2.76612 3.54905 2.60349 3.59072C2.44087 3.63238 2.29549 3.71991 2.18667 3.84167L2.13998 3.89324C1.24183 4.8954 0.54155 6.04241 0.0726346 7.27941L0.0492894 7.34325C-0.0674363 7.6502 0.0285382 7.99397 0.290523 8.2076L2.01028 9.59743C1.92987 10.0591 1.89096 10.5305 1.89096 10.9995C1.89096 11.471 1.92987 11.9425 2.01028 12.4016L0.290523 13.7915C0.162373 13.8953 0.070654 14.0336 0.0275628 14.188C-0.0155283 14.3424 -0.00795032 14.5056 0.0492894 14.6558L0.0726346 14.7197C0.542131 15.9572 1.2373 17.0991 2.13998 18.1058L2.18667 18.1574C2.29575 18.2788 2.44114 18.3661 2.60367 18.4077C2.7662 18.4494 2.93824 18.4434 3.09713 18.3907L5.22153 17.6761C5.99452 18.2777 6.85829 18.7541 7.7895 19.0856L8.19934 21.1826C8.23006 21.3397 8.31054 21.4841 8.43007 21.5969C8.54961 21.7096 8.70254 21.7852 8.86856 21.8137L8.9386 21.826C10.3024 22.058 11.6991 22.058 13.0629 21.826L13.1329 21.8137C13.299 21.7852 13.4519 21.7096 13.5714 21.5969C13.691 21.4841 13.7714 21.3397 13.8022 21.1826L14.2094 19.0954C15.148 18.7623 16.0219 18.2844 16.7955 17.681L18.9044 18.3907C19.0632 18.4439 19.2354 18.45 19.398 18.4084C19.5606 18.3667 19.706 18.2792 19.8148 18.1574L19.8615 18.1058C20.7642 17.0966 21.4594 15.9572 21.9289 14.7197L21.9522 14.6558C22.0689 14.3538 21.973 14.01 21.711 13.7964ZM18.1703 9.87245C18.2351 10.2432 18.2689 10.6238 18.2689 11.0044C18.2689 11.3851 18.2351 11.7657 18.1703 12.1364L17.9991 13.1211L19.9368 14.6902C19.643 15.3308 19.2722 15.9372 18.8317 16.4975L16.4246 15.6896L15.6101 16.3231C14.9902 16.8044 14.3002 17.1826 13.5532 17.4478L12.5649 17.7989L12.1006 20.1808C11.368 20.2593 10.6283 20.2593 9.89575 20.1808L9.43144 17.794L8.45094 17.4379C7.71168 17.1727 7.0243 16.7946 6.40954 16.3158L5.59506 15.6798L3.17235 16.495C2.73139 15.9327 2.36305 15.3262 2.06735 14.6877L4.02574 13.1039L3.85714 12.1217C3.79489 11.7558 3.76117 11.3777 3.76117 11.0044C3.76117 10.6288 3.79229 10.2531 3.85714 9.88718L4.02574 8.90497L2.06735 7.32116C2.36046 6.68026 2.73139 6.0762 3.17235 5.51389L5.59506 6.32912L6.40954 5.69314C7.0243 5.21431 7.71168 4.83616 8.45094 4.57096L9.43403 4.21982L9.89834 1.83305C10.6272 1.75447 11.3717 1.75447 12.1032 1.83305L12.5675 4.21491L13.5557 4.56605C14.3002 4.83125 14.9928 5.2094 15.6127 5.69068L16.4272 6.32421L18.8343 5.51634C19.2753 6.07866 19.6436 6.68517 19.9393 7.32361L18.0017 8.89269L18.1703 9.87245ZM11.0033 6.43717C8.48207 6.43717 6.43807 8.37212 6.43807 10.7589C6.43807 13.1457 8.48207 15.0806 11.0033 15.0806C13.5246 15.0806 15.5686 13.1457 15.5686 10.7589C15.5686 8.37212 13.5246 6.43717 11.0033 6.43717ZM13.0577 12.7037C12.7883 12.9595 12.468 13.1623 12.1155 13.3006C11.7629 13.4388 11.385 13.5096 11.0033 13.5091C10.2278 13.5091 9.49888 13.2218 8.94897 12.7037C8.67875 12.4486 8.46447 12.1455 8.31845 11.8117C8.17244 11.4779 8.09758 11.1201 8.09817 10.7589C8.09817 10.0247 8.40166 9.33469 8.94897 8.81412C9.49888 8.29354 10.2278 8.0087 11.0033 8.0087C11.7789 8.0087 12.5078 8.29354 13.0577 8.81412C13.3279 9.06919 13.5422 9.37233 13.6882 9.70609C13.8342 10.0398 13.9091 10.3976 13.9085 10.7589C13.9085 11.4931 13.605 12.1831 13.0577 12.7037Z" fill="black"/>
</svg>
