<svg width="62" height="62" viewBox="0 0 62 62" fill="none" xmlns="http://www.w3.org/2000/svg">
<circle cx="31" cy="31" r="31" fill="#72AFFF"/>
<path d="M26 39H36V41H26V39Z" fill="white"/>
<path d="M28 43H34V45H28V43Z" fill="white"/>
<path d="M25.815 33.14C24.8785 32.4257 24.1319 31.4921 23.641 30.4214C23.1501 29.3507 22.93 28.1758 23 27C23.0026 24.8791 23.8464 22.8458 25.3461 21.3461C26.8458 19.8464 28.8791 19.0026 31 19V17C28.3487 17.0029 25.8069 18.0574 23.9322 19.9321C22.0574 21.8069 21.0029 24.3487 21 27C20.9322 28.4528 21.2105 29.9009 21.8121 31.225C22.4137 32.5491 23.3212 33.7114 24.46 34.616C25.472 35.551 26 36.081 26 37H28C28 35.16 26.89 34.134 25.815 33.14Z" fill="white"/>
<path d="M36.178 33.143C35.107 34.135 34 35.16 34 37H36C36 36.08 36.526 35.55 37.535 34.614C38.6736 33.7094 39.5814 32.5476 40.1837 31.224C40.7861 29.9004 41.0658 28.4527 41 27H39C39.0681 28.1767 38.8464 29.3521 38.3544 30.4231C37.8624 31.4942 37.1151 32.4281 36.178 33.143Z" fill="white"/>
<path d="M33.5 24C34.3284 24 35 23.3284 35 22.5C35 21.6716 34.3284 21 33.5 21C32.6716 21 32 21.6716 32 22.5C32 23.3284 32.6716 24 33.5 24Z" fill="white"/>
<path d="M43.5 24C44.3284 24 45 23.3284 45 22.5C45 21.6716 44.3284 21 43.5 21C42.6716 21 42 21.6716 42 22.5C42 23.3284 42.6716 24 43.5 24Z" fill="white"/>
<path d="M38.5 24C39.3284 24 40 23.3284 40 22.5C40 21.6716 39.3284 21 38.5 21C37.6716 21 37 21.6716 37 22.5C37 23.3284 37.6716 24 38.5 24Z" fill="white"/>
</svg>
