<svg width="62" height="62" viewBox="0 0 62 62" fill="none" xmlns="http://www.w3.org/2000/svg">
<circle cx="31" cy="31" r="31" fill="#3CD775"/>
<g clip-path="url(#clip0_63:319)">
<path d="M26.2031 31.125C26.2031 31.5601 26.0303 31.9774 25.7226 32.2851C25.4149 32.5928 24.9976 32.7656 24.5625 32.7656C24.1274 32.7656 23.7101 32.5928 23.4024 32.2851C23.0947 31.9774 22.9219 31.5601 22.9219 31.125C22.9219 30.6899 23.0947 30.2726 23.4024 29.9649C23.7101 29.6572 24.1274 29.4844 24.5625 29.4844C24.9976 29.4844 25.4149 29.6572 25.7226 29.9649C26.0303 30.2726 26.2031 30.6899 26.2031 31.125V31.125ZM32.7656 31.125C32.7656 31.5601 32.5928 31.9774 32.2851 32.2851C31.9774 32.5928 31.5601 32.7656 31.125 32.7656C30.6899 32.7656 30.2726 32.5928 29.9649 32.2851C29.6572 31.9774 29.4844 31.5601 29.4844 31.125C29.4844 30.6899 29.6572 30.2726 29.9649 29.9649C30.2726 29.6572 30.6899 29.4844 31.125 29.4844C31.5601 29.4844 31.9774 29.6572 32.2851 29.9649C32.5928 30.2726 32.7656 30.6899 32.7656 31.125ZM37.6875 32.7656C38.1226 32.7656 38.5399 32.5928 38.8476 32.2851C39.1553 31.9774 39.3281 31.5601 39.3281 31.125C39.3281 30.6899 39.1553 30.2726 38.8476 29.9649C38.5399 29.6572 38.1226 29.4844 37.6875 29.4844C37.2524 29.4844 36.8351 29.6572 36.5274 29.9649C36.2197 30.2726 36.0469 30.6899 36.0469 31.125C36.0469 31.5601 36.2197 31.9774 36.5274 32.2851C36.8351 32.5928 37.2524 32.7656 37.6875 32.7656V32.7656Z" fill="white"/>
<path d="M21.552 43.9268L21.5848 43.9202C24.5871 43.3247 26.4213 42.5388 27.2745 42.1073C28.5305 42.4423 29.8251 42.6111 31.125 42.6094C38.3733 42.6094 44.25 37.4677 44.25 31.125C44.25 24.7823 38.3733 19.6406 31.125 19.6406C23.8767 19.6406 18 24.7823 18 31.125C18 34.0125 19.219 36.6539 21.232 38.6719C21.0912 39.9681 20.8028 41.2441 20.3723 42.4748L20.3674 42.4929C20.2451 42.8454 20.1116 43.1939 19.9671 43.538C19.8375 43.8431 20.0885 44.1844 20.415 44.1319C20.7951 44.0697 21.1741 44.0013 21.552 43.9268V43.9268ZM22.8645 38.8277C22.8874 38.5875 22.8572 38.3452 22.7758 38.1181C22.6944 37.8909 22.5639 37.6845 22.3936 37.5136C20.6545 35.768 19.6406 33.5334 19.6406 31.125C19.6406 25.8881 24.5691 21.2813 31.125 21.2813C37.6809 21.2813 42.6094 25.8881 42.6094 31.125C42.6094 36.3635 37.6809 40.9688 31.125 40.9688C29.9685 40.9704 28.8168 40.8204 27.6994 40.5225C27.3089 40.4179 26.8935 40.4611 26.5329 40.6439C25.898 40.9655 24.4985 41.5791 22.2115 42.109C22.5305 41.0379 22.7491 39.9394 22.8645 38.8277V38.8277Z" fill="white"/>
</g>
<defs>
<clipPath id="clip0_63:319">
<rect width="26.25" height="26.25" fill="white" transform="translate(18 18)"/>
</clipPath>
</defs>
</svg>
